<?xml version="1.0" encoding="utf-8"?>
<svg viewBox="196.148 72.67 493.531 493.562" xmlns="http://www.w3.org/2000/svg">
  <g style="fill:maroon" transform="matrix(1, 0, 0, 1, -2.842170943040401e-14, 0)">
    <path d="M388.131 699.546c-.21-1.308-.888-3.526-1.507-4.927-.62-1.401-1.922-5.738-2.892-9.637-1.616-6.49-1.766-7.881-1.774-16.421-.012-11.986.923-16.842 5.821-30.255.682-1.866 1.828-4.411 2.547-5.655 3.092-5.348 6.117-14.968 8.981-28.559 1.06-5.028 1.019-22.603-.061-26.355-.763-2.649-3.266-7.766-4.792-9.793-.567-.754-1.53-2.501-2.142-3.883-.612-1.382-2.22-4.074-3.576-5.982-1.356-1.908-3.531-5.377-4.835-7.71a430.414 430.414 0 0 0-2.874-5.09c-2.605-4.38-9.871-20.745-11.299-25.448-.99-3.265-2.576-7.973-3.523-10.462-5.026-13.212-6.381-19.2-5.9-26.057.2-2.838.737-6.418 1.193-7.955.457-1.536 1.2-4.692 1.653-7.011.452-2.32 1.37-5.871 2.038-7.893 1.674-5.066 3.102-17.042 2.123-17.814-1.385-1.092-6.575-12.492-7.821-17.18-1.14-4.293-1.202-5.206-.651-9.682.393-3.197 1.193-6.233 2.266-8.598 2.155-4.752 3.851-11.745 4.59-18.92.389-3.765 1.272-7.76 2.565-11.592 1.085-3.216 3.146-10.555 4.58-16.31 2.039-8.187 2.537-11.076 2.29-13.289-.825-7.406 1.732-22.358 5.2-30.405 2.786-6.466 4.84-8.52 12.148-12.15 7.034-3.493 9.355-3.741 14.55-1.555 1.848.778 3.88 1.414 4.516 1.414.636 0 2.489.863 4.117 1.918 1.628 1.055 4.093 2.084 5.477 2.287 1.384.203 2.858.652 3.275.998.582.483 1.179.236 2.572-1.065 2.318-2.163 6.977-4.881 9.167-5.348.933-.199 2.971-.626 4.53-.95 8.629-1.789 21.525.232 28.267 4.43 1.243.773 3.186 1.826 4.319 2.34 1.132.513 3.042 1.82 4.244 2.905 1.201 1.085 3.48 2.956 5.063 4.157 4.275 3.243 7.593 7.293 10.372 12.66 1.364 2.636 3.208 5.544 4.097 6.464 1.57 1.624 2.186 3.242 3.025 7.941.335 1.878.481 2.07.862 1.131.336-.83.468-.445.498 1.453.04 2.674-1.396 8.442-2.103 8.446-.817.005-2.359 4.938-2.914 9.329-1.048 8.278-3.312 13.714-7.978 19.151-3.623 4.223-3.867 4.882-3.932 10.615-.032 2.912.116 6.618.329 8.235.377 2.859.346 2.95-1.155 3.326-.849.213-3.02.233-4.827.045-3.041-.318-3.35-.242-4.187 1.036-.497.758-.904 1.846-.904 2.417 0 1.488-1.114 2.395-2.94 2.395-1.376 0-1.584.219-1.584 1.663 0 1.902-.572 2.384-3.374 2.836-1.55.25-2.04.621-2.187 1.653-.603 4.238-4.505 7.17-9.425 7.082-2.923-.052-3.851-.45-9.656-4.133-2.207-1.4-3.965-2.123-4.915-2.019-3.11.342-8.488 7.481-9.269 12.304-.561 3.466 4.563 11.637 13.663 21.786a401.84 401.84 0 0 1 6.167 7.06c1.524 1.8 4.826 5.235 7.338 7.634 2.513 2.398 8.846 8.623 14.074 13.832 10.12 10.082 11.721 12.423 13.756 20.104 1.657 6.256.707 14.515-2.248 19.558l-1.443 2.463 2.505.343c4.352.597 20.308 8.897 24.317 12.65.622.583 2.53 2.105 4.242 3.383 9.922 7.412 21.29 22.919 25.09 34.225 1.577 4.692 2.764 14.439 2.43 19.953-.465 7.677-2.126 13.094-6.933 22.614-4.472 8.855-7.325 13.264-11.802 18.244-2.619 2.912-2.488 3.876.321 2.372 1.73-.925 3.122-.148 4.769 2.662 1.77 3.02 1.623 4.885-.614 7.818-1.033 1.355-1.55 2.874-1.771 5.205-.24 2.526-.917 4.342-2.913 7.815-3.294 5.728-7.907 11.378-10.358 12.684-3.053 1.627-6.885 1.955-10.151.87-1.817-.603-3.555-.809-4.828-.57-1.223.23-2.295.118-2.786-.29-1.289-1.069-2.285-.262-4.004 3.24l-1.616 3.294.138 11.451.137 11.452h-99.377l-.38-2.38zm109.2-363.046c-.18-.451-.314-.317-.341.342-.025.596.109.93.297.742.187-.188.208-.676.045-1.084zm68.65 358.31c.027-.66.162-.793.342-.342.164.408.144.896-.044 1.084-.188.188-.321-.146-.297-.742zm-28.254-.896c-.036-.83-.383-1.636-.772-1.793-.554-.223-.55-.295.017-.33.897-.055 1.439 1.246 1.086 2.609-.179.69-.287.531-.33-.486zm4.503.33c.027-.659.161-.793.342-.342.163.409.143.896-.044 1.084-.188.188-.322-.146-.297-.742zm-13.006-.565c.027-.66.16-.793.341-.342.164.408.143.896-.044 1.084-.188.188-.322-.146-.297-.742zm34.496 0c.026-.66.16-.793.341-.342.164.408.144.896-.044 1.084-.188.188-.321-.146-.297-.742zm24.625.025c-.546-1.422-.385-1.79.282-.643.33.568.48 1.151.335 1.297-.146.146-.423-.149-.617-.654zm-37.33-.364c.163-.265.534-.335.823-.156.74.458.657.636-.296.636-.453 0-.69-.216-.527-.48zm3.091-.227c.027-.659.161-.793.342-.342.163.409.143.896-.045 1.084-.188.188-.321-.146-.297-.742zm-22.546-.54c-.602-.683-.578-.827.141-.827.48 0 .871.382.871.849 0 1.031-.085 1.03-1.012-.022zm25.257-.12c-.704-.897-.684-.917.213-.213.545.427.99.872.99.99 0 .465-.464.165-1.203-.777zm-8.098-.093a.631.631 0 0 1 .204-.866.632.632 0 0 1 .867.204.631.631 0 0 1-.204.867.632.632 0 0 1-.867-.205zm-37.07-.262c0-.117.445-.562.989-.99.897-.703.917-.683.213.214-.738.942-1.203 1.242-1.203.776zm13.006-.856c0-.381-.252-.538-.56-.348-.328.203-.41-.042-.198-.594.335-.872.399-.871.894.013.293.524.382 1.103.198 1.287-.184.184-.334.023-.334-.358zm37.889-1.414c0-.123.382-.369.848-.548.467-.18.849-.08.849.222 0 .301-.382.548-.849.548-.466 0-.848-.1-.848-.222z" style="fill:#000" transform="translate(0 -166.536)"/>
    <path d="M442.929 239.206c-136.287 0-246.781 110.494-246.781 246.781s110.494 246.781 246.781 246.781 246.75-110.494 246.75-246.78v-2.157c-1.174-135.447-111.298-244.625-246.75-244.625zm0 36.906c115.193 0 208.845 92.874 209.844 208.063v1.812c0 115.903-93.942 209.844-209.844 209.844S233.054 601.89 233.054 485.987c0-115.902 93.973-209.875 209.875-209.875z" style="color:#000;fill:#d40000;stroke:none;stroke-width:1;marker:none;visibility:visible;display:inline;overflow:visible;enable-background:accumulate" transform="translate(0 -166.536)"/>
    <path transform="translate(0 -166.536) rotate(135)" style="color:#000;fill:#d40000;stroke:none;stroke-width:1px;marker:none;visibility:visible;display:inline;overflow:visible;enable-background:accumulate" d="M-203.726-675.287h468.368v36.909h-468.368z"/>
  </g>
</svg>