<svg xmlns="http://www.w3.org/2000/svg" version="1.0" width="276.000000pt" height="281.000000pt" viewBox="0 0 276.000000 281.000000" preserveAspectRatio="xMidYMid meet">

<g transform="translate(0.000000,281.000000) scale(0.100000,-0.100000)" fill="#009640" stroke="none">
<path d="M1231 2760 c-94 -12 -261 -52 -331 -80 -330 -130 -596 -374 -746 -685 -293 -607 -93 -1347 466 -1720 86 -57 229 -128 321 -159 282 -94 596 -94 878 0 342 115 633 375 792 708 175 368 173 802 -5 1171 -157 324 -452 587 -787 699 -175 59 -423 86 -588 66z m348 -122 c316 -43 625 -236 823 -513 76 -105 154 -275 190 -412 30 -112 32 -127 32 -308 0 -181 -2 -196 -32 -308 -59 -223 -168 -413 -332 -577 -182 -183 -408 -301 -660 -346 -110 -20 -330 -20 -440 0 -480 86 -866 445 -992 921 -30 115 -32 129 -32 310 0 181 2 196 32 308 114 431 436 765 863 892 168 51 346 61 548 33z"/>
<path d="M1215 2569 c-463 -68 -851 -412 -971 -863 -48 -184 -48 -418 0 -601 136 -512 607 -875 1136 -875 562 0 1049 404 1156 959 21 105 20 334 -1 436 -104 503 -495 873 -1000 945 -83 11 -236 11 -320 -1z m-300 -531 c9 -25 28 -56 40 -68 22 -20 22 -25 10 -59 -24 -69 -26 -116 -10 -281 21 -235 20 -361 -5 -409 -29 -59 -112 -144 -170 -175 -134 -73 -321 -30 -381 86 -36 69 -31 149 14 240 20 41 46 83 58 94 15 13 20 14 16 4 -53 -136 -58 -221 -16 -266 72 -77 310 -68 396 14 50 49 40 273 -29 653 l-21 116 34 56 c18 31 36 53 40 49 3 -4 14 -28 24 -54z m653 -186 c6 -37 15 -155 21 -262 11 -224 25 -285 73 -325 32 -27 32 -27 168 -23 108 4 144 9 181 26 26 11 49 25 53 30 6 11 -73 45 -146 63 -64 15 -108 5 -164 -37 -25 -19 -48 -33 -51 -31 -9 9 46 112 81 153 75 88 151 87 330 -4 137 -69 177 -82 260 -82 67 0 66 1 12 -83 l-34 -54 -83 -6 c-60 -4 -119 -17 -204 -45 -271 -91 -377 -93 -461 -8 -56 55 -74 126 -90 341 l-7 100 -28 -105 c-54 -207 -97 -291 -185 -361 -47 -38 -121 -76 -183 -95 -59 -18 -219 -29 -251 -16 -23 8 -21 10 30 27 153 51 296 140 390 243 92 99 129 187 180 415 22 103 45 200 51 214 9 24 10 25 28 8 13 -11 23 -40 29 -83z m-414 -93 c70 -62 121 -146 140 -229 17 -72 21 -170 9 -170 -5 0 -19 29 -32 63 -40 108 -66 137 -159 183 -115 56 -125 68 -130 154 -6 103 -4 106 65 71 32 -16 80 -48 107 -72z m-29 -925 c21 -59 47 -116 57 -126 27 -27 14 -38 -47 -38 -53 0 -80 15 -55 30 7 5 9 16 5 29 -5 18 -13 22 -38 19 -34 -3 -50 -34 -27 -48 22 -14 0 -30 -40 -30 -47 0 -59 14 -32 38 11 9 36 62 57 117 35 93 58 130 75 120 4 -2 24 -53 45 -111z m701 -1 c21 -59 46 -115 56 -125 27 -27 14 -38 -47 -38 -53 0 -80 15 -55 30 7 5 9 16 5 29 -5 18 -13 22 -38 19 -34 -3 -50 -34 -27 -48 22 -14 0 -30 -40 -30 -47 0 -59 14 -32 38 11 9 36 62 57 117 35 94 58 130 75 120 4 -3 25 -53 46 -112z m-1162 98 c3 -5 -1 -11 -9 -15 -10 -3 -15 -19 -15 -46 0 -39 1 -40 35 -40 34 0 35 1 35 39 0 25 -5 41 -15 45 -37 14 -11 26 55 26 66 0 92 -12 55 -26 -23 -9 -22 -214 1 -214 9 0 14 -6 12 -12 -6 -17 -117 -23 -132 -8 -8 8 -6 14 7 21 12 7 17 23 17 54 0 45 0 45 -35 45 -35 0 -35 0 -35 -45 0 -30 5 -47 16 -53 30 -17 4 -32 -56 -32 -60 0 -86 15 -56 32 23 13 24 203 1 212 -8 3 -15 10 -15 16 0 12 127 14 134 1z m786 -1 c0 -6 -7 -13 -15 -16 -12 -5 -15 -26 -15 -105 l0 -99 30 0 c21 0 35 8 46 26 22 33 38 17 27 -27 l-9 -34 -99 0 c-70 0 -100 4 -102 13 -3 6 2 12 11 12 23 0 24 208 1 216 -35 14 -10 24 55 24 41 0 70 -4 70 -10z m700 0 c0 -6 -7 -13 -15 -16 -12 -5 -15 -26 -15 -105 l0 -99 33 0 c27 0 36 6 46 27 18 38 37 15 25 -29 l-10 -33 -99 0 c-70 0 -100 4 -102 13 -3 6 2 12 11 12 14 0 16 16 16 104 0 59 -4 108 -10 111 -25 16 -5 25 55 25 38 0 65 -4 65 -10z"/>
<path d="M1040 833 c0 -6 -3 -18 -6 -27 -4 -11 -1 -16 10 -16 9 0 16 6 16 13 0 16 -20 46 -20 30z"/>
<path d="M1740 833 c0 -6 -3 -18 -6 -27 -4 -11 -1 -16 10 -16 9 0 16 6 16 13 0 16 -20 46 -20 30z"/>
</g>
</svg>