<svg xmlns="http://www.w3.org/2000/svg" version="1.0" width="1672.000000pt" height="1504.000000pt" viewBox="0 0 1672.000000 1504.000000" preserveAspectRatio="xMidYMid meet">

<g transform="translate(0.000000,1504.000000) scale(0.100000,-0.100000)" fill="#000000" stroke="none">
<path d="M8055 15033 c-159 -6 -493 -35 -675 -58 -2012 -264 -3814 -1319 -5040 -2950 -770 -1025 -1268 -2240 -1434 -3505 -48 -361 -58 -523 -62 -955 l-4 -410 -420 -480 -419 -480 478 -3 478 -2 12 -73 c68 -385 236 -965 400 -1375 276 -690 661 -1352 1115 -1917 339 -422 783 -865 1206 -1201 1119 -890 2485 -1443 3920 -1588 401 -41 996 -46 1380 -11 1802 161 3422 915 4685 2179 1107 1109 1833 2507 2095 4036 74 435 102 767 105 1259 l2 383 421 482 421 481 -479 3 -479 2 -7 38 c-17 99 -59 293 -95 437 -210 840 -554 1626 -1024 2335 -923 1395 -2273 2439 -3846 2975 -881 300 -1785 432 -2734 398z m893 -318 c1264 -106 2435 -520 3482 -1232 725 -493 1400 -1168 1893 -1893 594 -873 982 -1837 1156 -2870 l28 -165 276 -5 276 -5 -862 -987 c-474 -543 -865 -986 -869 -985 -4 1 -395 445 -869 987 l-862 985 335 5 335 5 -42 170 c-388 1569 -1524 2867 -3025 3458 -481 190 -977 301 -1505 338 -189 13 -657 7 -820 -11 -951 -103 -1783 -425 -2515 -974 -686 -514 -1244 -1211 -1583 -1977 -228 -515 -375 -1091 -415 -1629 -4 -52 -11 -94 -15 -93 -5 1 -220 244 -479 540 -259 296 -474 539 -477 541 -3 1 -285 -317 -626 -707 l-620 -708 -3 106 c-4 126 13 448 34 651 142 1384 677 2688 1545 3770 1233 1537 3027 2502 4984 2680 352 32 894 34 1243 5z m262 -3469 c625 -47 949 -118 1012 -221 15 -26 18 -52 18 -181 l0 -150 170 -228 c94 -125 184 -255 201 -288 62 -124 59 66 59 -2958 l0 -2765 -24 -39 c-28 -47 -109 -102 -199 -136 l-67 -25 0 -116 c0 -113 -1 -116 -27 -141 -134 -125 -642 -197 -1608 -229 -557 -18 -1349 11 -1790 66 -354 45 -594 118 -610 188 -3 12 -6 69 -8 126 l-2 104 -76 32 c-95 40 -161 85 -188 129 l-21 33 0 2780 c0 3027 -4 2822 54 2948 12 28 102 156 199 286 l177 236 0 155 c0 143 2 157 21 182 89 113 563 195 1324 230 220 9 1182 -3 1385 -18z m-5932 -3791 l840 -960 -334 -3 -334 -2 6 -28 c221 -980 667 -1796 1359 -2487 1121 -1122 2680 -1641 4260 -1419 1310 184 2492 889 3305 1969 551 733 891 1624 973 2555 l12 134 479 -547 c263 -301 483 -546 487 -545 5 2 270 302 590 668 320 366 600 685 622 710 l40 45 -7 -215 c-23 -746 -137 -1400 -360 -2075 -360 -1086 -956 -2050 -1768 -2857 -1176 -1170 -2711 -1897 -4353 -2062 -407 -41 -983 -46 -1365 -11 -940 86 -1775 323 -2612 741 -692 346 -1303 789 -1863 1349 -711 710 -1242 1518 -1615 2455 -197 494 -325 971 -426 1587 l-5 33 -275 2 -275 3 863 987 863 986 27 -26 c15 -15 405 -459 866 -987z"/>
<path d="M8480 14350 c0 -6 -25 -330 -55 -722 -31 -391 -53 -713 -50 -716 4 -5 764 -69 841 -72 10 0 66 310 57 320 -2 2 -128 14 -279 26 -151 11 -277 24 -280 27 -7 6 10 234 18 242 2 3 114 -4 248 -15 135 -10 246 -17 248 -16 5 6 26 315 21 320 -2 3 -111 13 -242 22 -131 10 -241 21 -246 24 -8 5 5 210 14 219 3 2 120 -5 262 -16 142 -12 261 -18 264 -14 7 6 33 310 27 316 -4 4 -779 65 -820 65 -16 0 -28 -5 -28 -10z"/>
<path d="M7530 14340 c-239 -38 -390 -184 -451 -436 -41 -165 -27 -429 33 -629 97 -327 320 -493 615 -456 171 21 331 98 439 213 l50 53 -39 325 c-22 179 -42 328 -46 331 -5 5 -472 -48 -478 -54 -2 -3 38 -311 41 -314 2 -2 34 1 72 7 113 16 111 17 118 -37 4 -27 9 -64 12 -85 5 -36 5 -36 -58 -67 -120 -59 -235 -52 -313 20 -89 82 -129 225 -130 464 0 153 1 163 27 217 32 69 82 106 156 115 104 12 153 -25 207 -154 1 -3 306 75 311 80 11 11 -59 163 -101 223 -102 142 -282 213 -465 184z"/>
<path d="M9710 14227 c-1 -1 -83 -317 -184 -702 -100 -385 -180 -703 -177 -707 7 -7 782 -211 786 -206 9 14 106 310 103 314 -3 3 -114 33 -247 68 -132 34 -243 65 -246 67 -3 3 58 248 135 544 77 296 138 540 136 542 -3 4 -306 82 -306 80z"/>
<path d="M6205 14008 c-214 -72 -391 -132 -393 -133 -5 -4 448 -1368 457 -1377 7 -8 788 247 804 262 9 8 -49 277 -64 302 -6 10 -70 -8 -271 -75 -145 -48 -266 -87 -270 -87 -7 0 -78 210 -78 229 0 5 105 44 233 87 127 42 234 78 236 80 4 4 -90 287 -99 298 -5 4 -112 -26 -240 -69 -127 -42 -233 -75 -236 -73 -6 6 -75 211 -71 213 1 1 115 39 252 85 138 46 251 84 252 85 8 5 -101 305 -110 304 -7 0 -187 -59 -402 -131z"/>
<path d="M10549 13248 c-172 -358 -315 -654 -317 -658 -3 -8 419 -213 501 -243 52 -18 83 -22 187 -22 114 0 131 3 190 28 148 63 282 200 383 395 105 203 149 385 128 530 -21 140 -90 255 -205 339 -49 36 -390 212 -522 268 l-30 14 -315 -651z m554 166 c99 -50 132 -78 158 -131 73 -150 -80 -511 -253 -599 -75 -38 -144 -34 -249 17 -46 22 -86 42 -88 44 -8 8 335 705 347 705 7 0 45 -16 85 -36z"/>
<path d="M5335 13648 c-102 -51 -139 -74 -138 -86 2 -17 630 -1292 637 -1292 4 0 280 131 284 135 3 3 -635 1305 -642 1311 0 1 -64 -30 -141 -68z"/>
<path d="M4505 13164 c-220 -151 -407 -279 -415 -284 -11 -7 4 -35 75 -140 50 -73 95 -134 101 -137 6 -2 70 37 142 86 72 50 135 91 139 91 4 -1 149 -207 322 -460 178 -259 319 -456 325 -453 6 4 66 44 134 90 80 55 120 88 115 96 -4 7 -146 214 -315 460 -169 246 -308 451 -308 455 0 4 61 48 135 97 74 50 134 94 135 98 0 7 -158 244 -179 269 -4 4 -186 -116 -406 -268z"/>
<path d="M11943 12893 c-132 -169 -333 -429 -448 -577 -171 -222 -206 -271 -194 -280 9 -6 103 -79 211 -163 237 -184 274 -208 361 -235 144 -43 268 -8 387 111 116 118 166 249 138 367 l-15 62 52 4 c28 2 73 15 101 28 102 49 211 194 235 312 22 109 -36 239 -149 336 -44 37 -239 189 -429 334 -8 6 -84 -84 -250 -299z m478 -268 c24 -38 24 -66 -1 -115 -25 -49 -69 -80 -113 -80 -28 0 -55 15 -131 71 -65 48 -94 75 -88 83 19 25 80 104 116 148 l37 48 81 -63 c45 -34 89 -75 99 -92z m-415 -361 c44 -34 88 -74 97 -88 47 -71 -16 -201 -111 -231 -45 -13 -92 5 -180 72 -48 36 -91 69 -95 73 -4 3 12 31 35 61 136 174 150 189 161 183 7 -4 48 -36 93 -70z"/>
<path d="M3573 12398 c-68 -68 -123 -127 -123 -131 0 -8 708 -1308 719 -1319 3 -4 58 43 120 106 l113 114 -73 122 -72 121 140 140 140 140 122 -76 122 -77 118 113 c86 83 115 117 107 125 -16 16 -1277 739 -1296 742 -8 1 -68 -51 -137 -120z m488 -413 c101 -64 187 -119 191 -123 4 -4 -31 -43 -78 -86 -47 -43 -86 -77 -88 -75 -5 6 -222 372 -235 398 -16 29 -22 32 210 -114z"/>
<path d="M12643 11880 l-542 -488 271 -301 c167 -185 277 -300 285 -297 21 8 253 186 253 194 0 4 -70 86 -156 182 -86 96 -163 182 -171 192 -13 15 24 51 389 379 222 199 409 368 417 375 14 13 -18 54 -164 210 l-40 43 -542 -489z"/>
<path d="M2812 11515 c-155 -217 -285 -400 -287 -407 -4 -12 242 -198 262 -198 6 0 135 175 194 262 3 5 210 -138 459 -317 249 -179 457 -324 461 -323 15 6 188 253 181 259 -4 3 -200 145 -437 314 -236 169 -438 315 -448 324 -17 16 -13 24 78 151 52 73 95 136 95 139 0 8 -256 191 -267 191 -4 -1 -135 -178 -291 -395z"/>
<path d="M13320 11095 c-327 -223 -598 -409 -602 -413 -4 -4 33 -67 82 -139 l90 -132 273 186 c799 544 918 626 923 635 5 7 -162 268 -171 268 -1 0 -268 -182 -595 -405z"/>
<path d="M13655 10598 c-357 -172 -652 -313 -654 -315 -4 -2 130 -293 135 -293 1 0 96 45 210 101 l209 101 71 -12 c39 -6 83 -14 97 -18 30 -8 59 31 -292 -386 l-124 -147 74 -154 c41 -85 76 -155 79 -155 4 0 147 171 320 380 233 283 319 380 334 379 12 0 158 -22 326 -48 168 -26 306 -44 308 -40 4 10 -139 309 -148 309 -13 0 -595 90 -605 94 -5 2 10 13 35 24 158 71 421 203 418 211 -16 44 -133 281 -137 280 -3 0 -298 -140 -656 -311z"/>
<path d="M2402 10681 c-77 -26 -160 -88 -208 -154 -141 -191 -174 -427 -79 -576 81 -130 310 -243 459 -227 126 13 222 81 362 257 129 163 170 185 255 137 77 -43 87 -127 26 -229 -42 -71 -99 -103 -172 -96 -27 3 -57 8 -66 12 -12 5 -30 -24 -82 -137 -37 -78 -63 -146 -59 -149 17 -16 152 -51 217 -56 193 -15 349 85 448 287 62 125 80 202 75 306 -4 67 -10 94 -36 147 -79 159 -304 287 -484 274 -135 -9 -236 -80 -384 -268 -115 -146 -154 -169 -230 -133 -66 31 -81 103 -40 189 41 88 98 121 188 109 l46 -6 46 142 c25 78 46 146 46 150 0 14 -135 40 -207 40 -39 -1 -91 -8 -121 -19z"/>
<path d="M8490 9079 c-357 -40 -676 -195 -936 -454 -170 -170 -296 -364 -369 -572 l-19 -53 -121 0 -121 0 -61 -147 c-34 -82 -65 -156 -69 -165 -6 -17 5 -18 147 -18 l154 0 0 -150 0 -149 -85 -3 -85 -3 -67 -155 c-37 -85 -67 -158 -67 -162 -1 -5 83 -8 187 -8 l187 0 23 -65 c106 -293 330 -579 594 -756 558 -372 1280 -355 1815 45 l83 61 0 245 0 245 -26 -33 c-151 -191 -323 -324 -526 -407 -389 -159 -828 -111 -1175 127 -105 72 -246 215 -315 318 -49 75 -118 200 -118 215 0 3 365 6 810 7 l811 3 64 152 c36 84 65 157 65 163 0 7 -296 10 -919 10 l-918 0 -7 38 c-3 20 -6 71 -6 112 0 41 3 92 6 113 l7 37 986 0 987 0 67 159 c37 87 67 162 67 165 0 3 -454 6 -1010 6 -555 0 -1010 2 -1010 5 0 9 40 86 78 150 162 273 442 483 747 560 294 75 583 46 851 -85 149 -72 255 -151 371 -275 l89 -94 71 167 71 167 -63 62 c-214 208 -506 354 -813 408 -113 19 -324 26 -432 14z"/>
<path d="M2937 5337 c-296 -360 -319 -386 -345 -381 -100 18 -625 94 -628 91 -2 -2 30 -73 71 -158 l76 -154 299 -45 c164 -25 301 -48 304 -51 3 -3 -95 -54 -219 -114 -124 -60 -225 -112 -225 -116 0 -17 130 -279 139 -279 8 0 1298 616 1309 625 5 5 -132 285 -141 285 -5 0 -102 -44 -215 -99 l-207 -99 -87 17 c-48 9 -89 19 -92 21 -3 3 76 102 176 220 99 118 197 236 218 261 l39 45 -77 158 -77 159 -318 -386z"/>
<path d="M13515 5577 c-108 -36 -182 -95 -251 -198 -58 -87 -100 -193 -115 -289 -34 -220 96 -404 346 -490 125 -43 248 -32 346 30 56 37 154 138 236 245 34 44 75 88 91 98 90 52 198 -25 177 -126 -12 -53 -56 -126 -92 -148 -26 -16 -47 -20 -100 -18 l-67 2 -47 -147 c-32 -99 -43 -149 -35 -152 6 -2 40 -10 76 -19 222 -51 402 41 512 262 112 222 99 404 -36 538 -142 141 -354 200 -499 141 -88 -37 -160 -98 -259 -225 -50 -64 -103 -126 -117 -138 -39 -34 -81 -38 -134 -15 -84 37 -100 120 -45 224 43 81 95 112 176 106 31 -3 63 -7 71 -9 9 -3 34 39 77 131 35 74 63 140 64 147 1 40 -288 78 -375 50z"/>
<path d="M3290 4259 c-289 -197 -558 -382 -597 -409 l-72 -51 87 -129 c48 -71 91 -129 95 -130 15 0 1197 813 1197 824 -1 15 -164 249 -176 252 -5 2 -245 -159 -534 -357z"/>
<path d="M12731 4394 c-50 -70 -88 -131 -84 -135 5 -4 204 -147 443 -319 239 -171 440 -317 447 -323 9 -9 -10 -42 -82 -142 -52 -71 -94 -135 -94 -140 -1 -6 58 -52 130 -104 109 -78 133 -91 144 -80 45 47 576 802 569 808 -29 25 -254 181 -262 181 -5 0 -52 -61 -106 -135 l-97 -134 -87 63 c-333 240 -807 579 -818 583 -7 2 -50 -48 -103 -123z"/>
<path d="M3931 4148 l-133 -100 34 -36 c19 -21 98 -108 176 -195 l142 -157 -362 -328 c-200 -179 -388 -350 -417 -378 l-55 -52 104 -113 c58 -63 108 -114 112 -114 11 0 1076 958 1077 968 1 8 -520 590 -537 601 -4 2 -68 -41 -141 -96z"/>
<path d="M12432 3987 c-62 -62 -112 -115 -112 -119 0 -4 32 -60 71 -124 l71 -117 -140 -140 -140 -140 -124 76 -123 75 -115 -111 c-63 -62 -115 -115 -115 -120 0 -4 295 -176 655 -382 l655 -374 128 127 c85 85 125 132 121 142 -5 13 -644 1185 -699 1282 l-21 37 -112 -112z m335 -879 c62 -103 110 -188 107 -188 -4 0 -405 249 -414 257 -3 3 33 41 80 84 84 78 85 79 100 58 8 -12 65 -107 127 -211z"/>
<path d="M4660 3394 c-77 -21 -126 -52 -196 -125 -76 -80 -109 -137 -130 -222 -16 -65 -13 -128 11 -188 5 -14 -3 -17 -52 -21 -78 -6 -127 -31 -199 -103 -68 -68 -119 -158 -134 -237 -19 -99 28 -214 127 -309 53 -51 450 -359 463 -359 7 0 882 1131 887 1147 2 9 -403 323 -465 361 -99 60 -220 82 -312 56z m180 -330 c45 -23 174 -129 171 -139 -1 -5 -43 -63 -93 -127 l-90 -117 -80 62 c-109 84 -138 119 -138 163 0 65 46 132 115 168 32 17 71 14 115 -10z m-360 -485 c19 -12 62 -42 94 -68 33 -25 64 -49 69 -52 9 -6 -139 -209 -152 -209 -16 0 -158 120 -179 150 -39 57 -12 136 62 181 40 24 63 24 106 -2z"/>
<path d="M11410 3095 c-69 -47 -126 -90 -128 -95 -2 -5 136 -211 307 -459 171 -247 312 -454 313 -460 2 -6 -57 -52 -131 -103 -74 -51 -133 -98 -132 -103 4 -18 176 -265 184 -265 7 0 740 502 804 550 l21 17 -88 127 c-48 70 -92 132 -97 137 -5 5 -66 -31 -147 -87 -76 -53 -141 -92 -145 -88 -5 5 -142 204 -306 442 -163 238 -305 442 -314 453 -16 20 -18 18 -141 -66z"/>
<path d="M10752 2707 l-143 -73 325 -652 c179 -359 328 -652 331 -652 3 0 68 31 145 70 l139 70 -24 53 c-29 66 -624 1257 -628 1256 -1 0 -66 -33 -145 -72z"/>
<path d="M5671 2705 c-213 -60 -387 -246 -507 -545 -92 -227 -98 -405 -18 -562 32 -63 119 -156 188 -202 53 -34 515 -261 520 -255 9 12 626 1299 626 1306 0 13 -403 208 -495 240 -90 32 -235 40 -314 18z m294 -371 c44 -20 81 -38 83 -40 3 -1 -277 -586 -324 -677 l-20 -38 -91 45 c-112 57 -157 103 -172 178 -34 167 116 474 272 553 72 37 143 31 252 -21z"/>
<path d="M10048 2416 c-213 -72 -390 -134 -393 -137 -10 -11 69 -309 81 -309 7 0 129 40 273 89 l260 88 40 -120 c23 -66 40 -121 38 -122 -1 -2 -108 -38 -238 -81 l-236 -78 50 -150 c27 -83 51 -153 53 -155 1 -1 105 31 231 73 125 42 233 76 238 76 14 0 79 -200 68 -210 -4 -4 -117 -45 -250 -90 -134 -46 -243 -86 -243 -91 0 -10 98 -290 103 -295 2 -2 184 57 404 132 l401 136 -232 689 c-171 510 -235 689 -246 688 -8 0 -189 -60 -402 -133z"/>
<path d="M6589 2393 c-14 -35 -99 -282 -99 -287 0 -2 112 -32 250 -67 137 -35 250 -68 250 -74 0 -5 -61 -250 -137 -543 -75 -293 -134 -534 -132 -536 9 -9 299 -79 305 -74 7 8 364 1401 360 1406 -4 3 -771 202 -781 202 -3 0 -10 -12 -16 -27z"/>
<path d="M8992 2220 c-99 -14 -215 -57 -294 -109 -82 -54 -178 -146 -178 -170 0 -26 79 -643 83 -647 4 -5 469 54 475 60 6 6 -29 299 -37 308 -3 3 -45 2 -94 -4 -48 -6 -89 -9 -91 -7 -2 2 -7 41 -11 86 l-8 83 69 32 c57 26 80 32 143 32 66 1 82 -3 124 -27 85 -50 133 -153 164 -352 17 -117 13 -267 -12 -335 -30 -87 -106 -139 -201 -140 -68 0 -110 29 -147 101 l-29 56 -150 -37 c-82 -21 -152 -40 -155 -43 -8 -9 17 -77 59 -159 114 -221 351 -307 607 -222 200 67 316 217 360 468 37 205 -10 522 -104 713 -117 236 -320 348 -573 313z"/>
<path d="M7481 2035 c-13 -86 -22 -158 -19 -160 4 -4 495 -45 543 -45 20 0 20 -4 12 -122 -5 -68 -11 -125 -13 -127 -2 -3 -107 3 -232 12 -125 10 -236 17 -248 17 -19 0 -21 -9 -32 -157 -7 -86 -10 -159 -7 -161 3 -3 114 -14 247 -24 133 -10 243 -20 246 -22 2 -3 1 -54 -3 -116 l-8 -111 -41 5 c-76 10 -487 38 -492 34 -6 -7 -26 -261 -22 -294 l3 -29 415 -31 c228 -17 418 -29 421 -25 8 8 114 1439 107 1446 -5 6 -752 65 -818 65 l-36 0 -23 -155z"/>
</g>
</svg>