<svg xmlns="http://www.w3.org/2000/svg" version="1.0" width="1280.000000pt" height="859.000000pt" viewBox="0 0 1280.000000 859.000000" preserveAspectRatio="xMidYMid meet">
<metadata>
Created by potrace 1.15, written by Peter Selinger 2001-2017
</metadata>
<g transform="translate(0.000000,859.000000) scale(0.100000,-0.100000)" fill="#000000" stroke="none">
<path d="M2706 8570 c-41 -13 -65 -16 -77 -9 -28 15 -82 11 -207 -15 -149 -31 -163 -37 -225 -91 -28 -24 -77 -58 -109 -75 -38 -20 -68 -46 -85 -71 -25 -39 -26 -39 -89 -39 l-64 0 0 36 c0 29 -3 35 -16 30 -26 -10 -164 -20 -164 -12 0 4 5 16 10 27 13 24 7 24 -96 3 -45 -10 -96 -14 -121 -10 -36 5 -54 1 -102 -24 l-58 -29 -7 -73 c-5 -60 -10 -76 -29 -88 -12 -8 -37 -29 -55 -46 -27 -27 -31 -36 -23 -56 12 -32 2 -49 -80 -130 -103 -102 -220 -239 -235 -274 -7 -17 -18 -62 -24 -100 -7 -44 -25 -97 -51 -146 -21 -43 -42 -98 -45 -122 -7 -47 -7 -48 -159 -226 -38 -46 -94 -117 -124 -159 -29 -42 -126 -150 -216 -241 -146 -149 -166 -174 -203 -250 -46 -95 -61 -177 -43 -232 15 -47 76 -103 152 -141 55 -28 64 -37 76 -74 28 -84 97 -123 248 -140 28 -3 58 -12 67 -20 25 -22 85 -26 174 -10 113 21 147 39 210 117 30 37 67 73 82 79 65 25 79 24 139 -13 48 -30 74 -38 145 -47 85 -10 88 -10 125 15 53 37 99 34 154 -7 91 -70 118 -72 202 -22 32 19 68 35 80 35 32 0 219 -65 312 -109 108 -50 283 -160 305 -191 9 -14 43 -88 75 -165 71 -172 116 -263 258 -520 152 -278 254 -482 266 -535 6 -25 20 -90 32 -145 53 -247 220 -588 375 -766 27 -32 108 -103 179 -160 143 -112 276 -237 305 -284 10 -16 25 -52 35 -80 76 -228 90 -394 55 -643 -22 -154 -22 -170 -12 -438 10 -237 15 -295 37 -388 30 -130 31 -155 6 -254 -11 -43 -38 -169 -62 -282 l-42 -205 -58 -65 c-33 -36 -76 -96 -96 -135 -20 -38 -64 -104 -98 -145 -34 -41 -80 -102 -102 -135 -23 -33 -55 -78 -72 -99 -24 -30 -29 -42 -20 -52 32 -39 90 -2 164 101 46 66 68 79 79 49 10 -25 -16 -57 -94 -119 -39 -31 -78 -67 -86 -81 -15 -23 -15 -26 1 -44 10 -11 38 -22 64 -26 54 -8 450 13 531 28 75 14 163 51 209 87 22 17 48 31 60 31 12 0 21 2 21 4 0 2 -12 29 -26 61 -19 41 -25 67 -21 94 3 23 -1 44 -9 56 -23 31 -16 43 36 70 85 43 88 104 10 180 -22 22 -40 49 -40 61 0 12 14 88 30 170 17 82 35 190 40 241 10 98 29 154 82 248 18 33 44 84 57 114 46 109 84 428 70 591 -21 235 -22 254 -4 320 16 64 112 280 124 280 3 0 38 -153 77 -340 61 -292 70 -345 61 -378 -9 -33 -7 -46 16 -95 27 -60 95 -154 142 -197 74 -68 176 -261 221 -419 23 -81 26 -106 21 -185 -5 -95 -55 -272 -84 -301 -8 -8 -53 -72 -100 -142 -78 -116 -141 -231 -158 -290 -8 -29 21 -58 72 -72 53 -15 193 -13 288 4 44 8 103 15 131 15 116 0 288 84 313 151 7 19 19 49 27 67 24 55 18 122 -14 173 -16 24 -36 50 -45 58 -9 7 -17 24 -17 38 0 19 9 28 44 42 48 21 56 34 56 92 0 58 -20 96 -88 171 -92 101 -100 142 -112 593 -5 182 -14 346 -18 365 -10 40 -55 132 -115 235 l-40 69 -32 401 c-18 220 -31 402 -29 404 5 6 255 70 404 103 142 32 151 33 385 32 384 0 944 -52 1345 -125 159 -28 259 -22 405 25 161 52 269 76 370 82 90 6 90 6 177 -35 75 -35 90 -46 102 -76 29 -69 34 -129 18 -230 -14 -93 -14 -98 5 -123 28 -37 67 -48 99 -27 35 23 44 54 54 178 8 116 22 147 65 147 39 0 51 -25 37 -76 -27 -100 -9 -202 45 -258 52 -53 83 -46 83 20 0 13 13 65 29 116 16 51 32 108 36 125 11 57 91 101 123 70 13 -14 14 -25 4 -79 -23 -126 -26 -221 -8 -255 18 -35 46 -49 73 -35 30 17 71 112 78 182 4 36 16 90 27 121 19 54 22 57 60 63 51 8 68 -5 68 -54 0 -21 9 -67 20 -103 22 -70 55 -107 95 -107 41 0 56 30 64 137 6 77 13 109 30 136 25 41 76 87 95 87 25 0 102 -188 145 -353 80 -299 100 -640 55 -934 -29 -198 -107 -453 -178 -591 -20 -37 -49 -107 -67 -157 -47 -137 -93 -229 -136 -277 -22 -23 -57 -70 -78 -103 -21 -33 -61 -87 -90 -120 -106 -122 -126 -171 -82 -199 20 -14 125 -36 238 -51 63 -8 122 6 270 66 l126 51 16 73 c9 40 21 114 27 166 10 84 14 96 38 114 80 60 163 139 168 161 4 15 -2 59 -15 104 -11 42 -21 91 -21 108 0 17 21 75 46 129 151 322 384 870 384 902 0 6 4 11 10 11 17 0 48 -125 65 -261 22 -185 31 -471 23 -739 -7 -250 -27 -408 -63 -486 -30 -67 -124 -206 -220 -324 -131 -162 -178 -257 -161 -324 10 -41 48 -34 106 20 28 26 50 44 50 40 0 -4 -12 -29 -26 -57 -14 -28 -24 -52 -22 -54 2 -2 86 -12 188 -24 170 -19 191 -20 254 -6 38 8 80 22 93 31 30 19 55 75 57 127 1 34 4 38 24 34 12 -2 22 -3 22 -3 0 1 -9 76 -20 166 -11 90 -18 170 -16 177 4 10 16 8 51 -9 41 -20 47 -21 61 -6 26 26 27 95 4 198 -33 144 -35 240 -11 445 11 99 25 254 31 345 23 343 62 590 122 758 37 107 34 137 -23 227 -52 83 -83 166 -99 268 -16 100 -9 182 29 334 18 69 35 174 41 245 27 309 96 440 276 523 108 51 155 98 276 280 172 258 302 581 413 1020 l33 130 1 -190 c1 -219 -8 -304 -48 -471 -17 -66 -33 -154 -36 -195 -8 -79 12 -400 46 -763 11 -123 18 -241 14 -270 -13 -107 -36 -210 -55 -253 -11 -25 -20 -54 -20 -64 0 -10 18 -80 40 -154 81 -278 88 -365 41 -546 -44 -168 -44 -170 -10 -99 92 191 135 358 127 487 -3 40 -4 73 -2 73 8 0 44 -81 64 -145 20 -66 21 -80 13 -245 -9 -201 -6 -300 12 -352 12 -35 103 -198 111 -198 2 0 -1 11 -6 25 -17 45 -40 155 -40 193 0 20 14 91 32 156 l33 119 7 -59 c3 -35 0 -93 -8 -144 -18 -109 -18 -130 1 -130 20 0 42 36 54 91 6 26 23 80 38 120 l28 74 9 -38 c5 -20 14 -36 19 -34 5 1 24 22 41 46 30 41 31 48 34 154 5 148 -12 279 -48 379 -25 68 -101 212 -169 318 -12 18 -1 13 39 -20 30 -25 69 -60 87 -78 l34 -33 -7 28 c-15 63 -31 84 -169 218 -188 184 -195 198 -206 413 -5 86 -16 221 -25 298 -17 149 -17 154 21 434 7 58 23 229 35 380 11 151 26 302 31 335 16 87 14 1428 -1 1486 -6 24 -25 68 -41 96 -16 29 -29 66 -29 82 0 45 -65 294 -93 355 -86 188 -261 257 -723 286 -82 5 -210 16 -284 25 -376 42 -1220 -15 -2020 -136 -146 -22 -296 -45 -335 -51 -44 -7 -167 -8 -335 -4 -267 6 -434 15 -1157 61 -216 14 -422 25 -456 25 -131 0 -442 52 -784 130 -320 74 -760 140 -1163 175 -104 9 -337 18 -535 21 -384 5 -529 17 -770 65 -187 37 -339 77 -522 136 -136 44 -156 54 -133 68 6 3 10 24 10 45 0 33 4 41 27 52 38 18 54 96 29 138 -19 33 -21 120 -3 141 6 9 24 23 40 32 19 13 27 26 27 47 0 33 -26 55 -83 71 -21 5 -35 14 -32 19 9 14 -64 30 -142 30 -42 0 -73 4 -73 10 0 16 -70 11 -134 -10z"/>
</g>
</svg>