<?xml version="1.0" encoding="utf-8"?>
<svg xmlns="http://www.w3.org/2000/svg" xmlns:xlink="http://www.w3.org/1999/xlink" xml:space="preserve" width="300" height="300" viewBox="0 20 300 260"><rect width="300" height="300" fill="#ffffff" x="0" y="0"/><g fill="#000000">
<g transform="translate(120,24) scale(2.06)"><rect width="6" height="6"/></g>
<g transform="translate(132,24) scale(2.06)"><rect width="6" height="6"/></g>
<g transform="translate(144,24) scale(2.06)"><rect width="6" height="6"/></g>
<g transform="translate(156,24) scale(2.06)"><rect width="6" height="6"/></g>
<g transform="translate(168,24) scale(2.06)"><rect width="6" height="6"/></g>
<g transform="translate(132,36) scale(2.06)"><rect width="6" height="6"/></g>
<g transform="translate(144,36) scale(2.06)"><rect width="6" height="6"/></g>
<g transform="translate(156,48) scale(2.06)"><rect width="6" height="6"/></g>
<g transform="translate(168,48) scale(2.06)"><rect width="6" height="6"/></g>
<g transform="translate(132,60) scale(2.06)"><rect width="6" height="6"/></g>
<g transform="translate(144,60) scale(2.06)"><rect width="6" height="6"/></g>
<g transform="translate(156,60) scale(2.06)"><rect width="6" height="6"/></g>
<g transform="translate(168,60) scale(2.06)"><rect width="6" height="6"/></g>
<g transform="translate(120,72) scale(2.06)"><rect width="6" height="6"/></g>
<g transform="translate(132,72) scale(2.06)"><rect width="6" height="6"/></g>
<g transform="translate(120,84) scale(2.06)"><rect width="6" height="6"/></g>
<g transform="translate(132,84) scale(2.06)"><rect width="6" height="6"/></g>
<g transform="translate(144,84) scale(2.06)"><rect width="6" height="6"/></g>
<g transform="translate(156,84) scale(2.06)"><rect width="6" height="6"/></g>
<g transform="translate(120,96) scale(2.06)"><rect width="6" height="6"/></g>
<g transform="translate(144,96) scale(2.06)"><rect width="6" height="6"/></g>
<g transform="translate(168,96) scale(2.06)"><rect width="6" height="6"/></g>
<g transform="translate(156,108) scale(2.06)"><rect width="6" height="6"/></g>
<g transform="translate(168,108) scale(2.06)"><rect width="6" height="6"/></g>
<g transform="translate(36,120) scale(2.06)"><rect width="6" height="6"/></g>
<g transform="translate(48,120) scale(2.06)"><rect width="6" height="6"/></g>
<g transform="translate(60,120) scale(2.06)"><rect width="6" height="6"/></g>
<g transform="translate(72,120) scale(2.06)"><rect width="6" height="6"/></g>
<g transform="translate(84,120) scale(2.06)"><rect width="6" height="6"/></g>
<g transform="translate(96,120) scale(2.06)"><rect width="6" height="6"/></g>
<g transform="translate(108,120) scale(2.06)"><rect width="6" height="6"/></g>
<g transform="translate(144,120) scale(2.06)"><rect width="6" height="6"/></g>
<g transform="translate(168,120) scale(2.06)"><rect width="6" height="6"/></g>
<g transform="translate(204,120) scale(2.06)"><rect width="6" height="6"/></g>
<g transform="translate(216,120) scale(2.06)"><rect width="6" height="6"/></g>
<g transform="translate(264,120) scale(2.06)"><rect width="6" height="6"/></g>
<g transform="translate(24,132) scale(2.06)"><rect width="6" height="6"/></g>
<g transform="translate(72,132) scale(2.06)"><rect width="6" height="6"/></g>
<g transform="translate(84,132) scale(2.06)"><rect width="6" height="6"/></g>
<g transform="translate(132,132) scale(2.06)"><rect width="6" height="6"/></g>
<g transform="translate(156,132) scale(2.06)"><rect width="6" height="6"/></g>
<g transform="translate(216,132) scale(2.06)"><rect width="6" height="6"/></g>
<g transform="translate(228,132) scale(2.06)"><rect width="6" height="6"/></g>
<g transform="translate(264,132) scale(2.06)"><rect width="6" height="6"/></g>
<g transform="translate(24,144) scale(2.06)"><rect width="6" height="6"/></g>
<g transform="translate(60,144) scale(2.06)"><rect width="6" height="6"/></g>
<g transform="translate(72,144) scale(2.06)"><rect width="6" height="6"/></g>
<g transform="translate(84,144) scale(2.06)"><rect width="6" height="6"/></g>
<g transform="translate(96,144) scale(2.06)"><rect width="6" height="6"/></g>
<g transform="translate(132,144) scale(2.06)"><rect width="6" height="6"/></g>
<g transform="translate(144,144) scale(2.06)"><rect width="6" height="6"/></g>
<g transform="translate(180,144) scale(2.06)"><rect width="6" height="6"/></g>
<g transform="translate(204,144) scale(2.06)"><rect width="6" height="6"/></g>
<g transform="translate(228,144) scale(2.06)"><rect width="6" height="6"/></g>
<g transform="translate(240,144) scale(2.06)"><rect width="6" height="6"/></g>
<g transform="translate(24,156) scale(2.06)"><rect width="6" height="6"/></g>
<g transform="translate(36,156) scale(2.06)"><rect width="6" height="6"/></g>
<g transform="translate(84,156) scale(2.06)"><rect width="6" height="6"/></g>
<g transform="translate(120,156) scale(2.06)"><rect width="6" height="6"/></g>
<g transform="translate(156,156) scale(2.06)"><rect width="6" height="6"/></g>
<g transform="translate(204,156) scale(2.06)"><rect width="6" height="6"/></g>
<g transform="translate(216,156) scale(2.06)"><rect width="6" height="6"/></g>
<g transform="translate(228,156) scale(2.06)"><rect width="6" height="6"/></g>
<g transform="translate(240,156) scale(2.06)"><rect width="6" height="6"/></g>
<g transform="translate(252,156) scale(2.06)"><rect width="6" height="6"/></g>
<g transform="translate(72,168) scale(2.06)"><rect width="6" height="6"/></g>
<g transform="translate(96,168) scale(2.06)"><rect width="6" height="6"/></g>
<g transform="translate(120,168) scale(2.06)"><rect width="6" height="6"/></g>
<g transform="translate(168,168) scale(2.06)"><rect width="6" height="6"/></g>
<g transform="translate(204,168) scale(2.06)"><rect width="6" height="6"/></g>
<g transform="translate(216,168) scale(2.06)"><rect width="6" height="6"/></g>
<g transform="translate(252,168) scale(2.06)"><rect width="6" height="6"/></g>
<g transform="translate(120,180) scale(2.06)"><rect width="6" height="6"/></g>
<g transform="translate(132,180) scale(2.06)"><rect width="6" height="6"/></g>
<g transform="translate(144,180) scale(2.06)"><rect width="6" height="6"/></g>
<g transform="translate(156,180) scale(2.06)"><rect width="6" height="6"/></g>
<g transform="translate(168,180) scale(2.06)"><rect width="6" height="6"/></g>
<g transform="translate(180,180) scale(2.06)"><rect width="6" height="6"/></g>
<g transform="translate(192,180) scale(2.06)"><rect width="6" height="6"/></g>
<g transform="translate(216,180) scale(2.06)"><rect width="6" height="6"/></g>
<g transform="translate(264,180) scale(2.06)"><rect width="6" height="6"/></g>
<g transform="translate(120,192) scale(2.06)"><rect width="6" height="6"/></g>
<g transform="translate(132,192) scale(2.06)"><rect width="6" height="6"/></g>
<g transform="translate(168,192) scale(2.06)"><rect width="6" height="6"/></g>
<g transform="translate(192,192) scale(2.06)"><rect width="6" height="6"/></g>
<g transform="translate(204,192) scale(2.06)"><rect width="6" height="6"/></g>
<g transform="translate(228,192) scale(2.06)"><rect width="6" height="6"/></g>
<g transform="translate(252,192) scale(2.06)"><rect width="6" height="6"/></g>
<g transform="translate(120,204) scale(2.06)"><rect width="6" height="6"/></g>
<g transform="translate(132,204) scale(2.06)"><rect width="6" height="6"/></g>
<g transform="translate(144,204) scale(2.06)"><rect width="6" height="6"/></g>
<g transform="translate(156,204) scale(2.06)"><rect width="6" height="6"/></g>
<g transform="translate(180,204) scale(2.06)"><rect width="6" height="6"/></g>
<g transform="translate(192,204) scale(2.06)"><rect width="6" height="6"/></g>
<g transform="translate(204,204) scale(2.06)"><rect width="6" height="6"/></g>
<g transform="translate(228,204) scale(2.06)"><rect width="6" height="6"/></g>
<g transform="translate(240,204) scale(2.06)"><rect width="6" height="6"/></g>
<g transform="translate(120,216) scale(2.06)"><rect width="6" height="6"/></g>
<g transform="translate(132,216) scale(2.06)"><rect width="6" height="6"/></g>
<g transform="translate(144,216) scale(2.06)"><rect width="6" height="6"/></g>
<g transform="translate(264,216) scale(2.06)"><rect width="6" height="6"/></g>
<g transform="translate(120,228) scale(2.06)"><rect width="6" height="6"/></g>
<g transform="translate(132,228) scale(2.06)"><rect width="6" height="6"/></g>
<g transform="translate(168,228) scale(2.06)"><rect width="6" height="6"/></g>
<g transform="translate(216,228) scale(2.06)"><rect width="6" height="6"/></g>
<g transform="translate(240,228) scale(2.06)"><rect width="6" height="6"/></g>
<g transform="translate(120,240) scale(2.06)"><rect width="6" height="6"/></g>
<g transform="translate(144,240) scale(2.06)"><rect width="6" height="6"/></g>
<g transform="translate(156,240) scale(2.06)"><rect width="6" height="6"/></g>
<g transform="translate(180,240) scale(2.06)"><rect width="6" height="6"/></g>
<g transform="translate(228,240) scale(2.06)"><rect width="6" height="6"/></g>
<g transform="translate(240,240) scale(2.06)"><rect width="6" height="6"/></g>
<g transform="translate(120,252) scale(2.06)"><rect width="6" height="6"/></g>
<g transform="translate(204,252) scale(2.06)"><rect width="6" height="6"/></g>
<g transform="translate(216,252) scale(2.06)"><rect width="6" height="6"/></g>
<g transform="translate(228,252) scale(2.06)"><rect width="6" height="6"/></g>
<g transform="translate(240,252) scale(2.06)"><rect width="6" height="6"/></g>
<g transform="translate(132,264) scale(2.06)"><rect width="6" height="6"/></g>
<g transform="translate(156,264) scale(2.06)"><rect width="6" height="6"/></g>
<g transform="translate(180,264) scale(2.06)"><rect width="6" height="6"/></g>
<g transform="translate(204,264) scale(2.06)"><rect width="6" height="6"/></g>
<g transform="translate(228,264) scale(2.06)"><rect width="6" height="6"/></g>
<g transform="translate(252,264) scale(2.06)"><rect width="6" height="6"/></g>
<g transform="translate(24,24)"><g transform="scale(6)"><path d="M0,0v14h14V0H0z M12,12H2V2h10V12z"/></g></g>
<g transform="translate(192,24)"><g transform="scale(6)"><path d="M0,0v14h14V0H0z M12,12H2V2h10V12z"/></g></g>
<g transform="translate(24,192)"><g transform="scale(6)"><path d="M0,0v14h14V0H0z M12,12H2V2h10V12z"/></g></g>
<g transform="translate(48,48)"><g transform="scale(6)"><rect width="6" height="6"/></g></g>
<g transform="translate(216,48)"><g transform="scale(6)"><rect width="6" height="6"/></g></g>
<g transform="translate(48,216)"><g transform="scale(6)"><rect width="6" height="6"/></g></g>
</g></svg>
